<svg width="452" height="525" viewBox="0 0 452 525" fill="none" xmlns="http://www.w3.org/2000/svg">
<path d="M85.6756 499.411C86.5406 499.809 87.4169 500.11 88.1866 500.345C89.8146 500.841 91.6183 501.227 93.2979 501.532C94.9923 501.839 96.6562 502.081 98.0193 502.27C98.3795 502.32 98.7079 502.365 99.0057 502.406C99.9094 502.531 100.532 502.616 100.911 502.685C102.813 503.031 104.623 503.687 106.857 504.498C107.036 504.563 107.217 504.629 107.402 504.695C109.753 505.546 112.573 506.534 115.707 506.883C118.296 507.17 120.751 507.969 123.49 509.042C124.184 509.313 124.922 509.614 125.692 509.929C127.789 510.784 130.129 511.738 132.491 512.474C134.894 513.223 137.285 514.078 139.772 514.975L140.186 515.124C142.518 515.965 144.94 516.839 147.403 517.63C155.774 520.317 163.906 520.241 171.695 520.168C172.313 520.162 172.928 520.156 173.541 520.152C198.044 519.978 219.6 507.111 238.577 495.397C251.443 487.454 264.189 479.37 276.922 471.281C284.269 466.613 291.943 462.428 299.778 458.223C300.602 457.78 301.428 457.338 302.255 456.894C309.255 453.143 316.368 449.331 323.286 445.18C331.027 440.536 339.076 436.054 347.211 431.524C366.256 420.919 385.77 410.053 402.881 396.238C417.027 384.816 425.039 369.013 431.605 353.521C442.636 327.49 447.018 302.023 447.095 273.893C447.171 246.333 445.432 218.34 439.995 191.058C436.308 172.555 429.219 154.236 422.563 137.194C421.235 133.793 419.917 130.367 418.594 126.927C409.071 102.18 399.265 76.6949 383.42 54.4173C367.187 31.5934 343.749 6.89969 312.183 4.78116C288.636 3.20083 265.393 8.59364 243.432 13.6887C242.685 13.862 241.94 14.035 241.196 14.2073C220.85 18.9201 200.215 24.0595 180.212 30.6999C131.15 46.9868 85.6354 72.9732 52.4476 113.992C42.1529 126.716 34.6841 138.999 29.3537 154.685C22.481 174.911 18.1229 196.242 13.9193 216.818C13.7393 217.699 13.5595 218.579 13.3798 219.458C5.51732 257.897 3.76924 296.099 5.12458 335.034C6.4519 373.164 10.9813 412.767 29.6446 447.731C39.5606 466.308 52.9612 482.265 71.312 493.512C71.4693 493.609 71.6627 493.73 71.8872 493.87C73.1192 494.64 75.2864 495.995 77.5478 497.091C78.8964 497.745 80.4453 498.392 82.0164 498.79C82.819 498.993 83.779 499.171 84.8111 499.194L85.2393 499.546L85.6756 499.411Z" stroke="black" stroke-width="9" stroke-linecap="round"/>
</svg>
