<svg width="458" height="149" viewBox="0 0 458 149" fill="none" xmlns="http://www.w3.org/2000/svg">
<rect x="79.4938" y="2.75894" width="113.3" height="19.38" transform="rotate(-0.3386 79.4938 2.75894)" fill="#1E1E1E"/>
<path d="M343.061 1.20132L446.67 0.589025C452.021 0.557399 456.385 4.87004 456.417 10.2216V10.2216C456.448 15.5731 452.136 19.9371 446.784 19.9687L343.176 20.581L343.061 1.20132Z" fill="#1E1E1E"/>
<path d="M0.810981 8.22403C0.794662 5.46265 3.01997 3.21089 5.78135 3.19457L156.784 2.30218C159.546 2.28587 161.797 4.51117 161.814 7.27255L162.348 97.6209C162.511 125.235 140.258 147.752 112.644 147.916L51.6396 148.276C24.0258 148.439 1.50811 126.186 1.34492 98.5724L0.810981 8.22403Z" fill="#1E1E1E"/>
<path d="M18.8051 25.883C18.7887 23.1216 21.0141 20.8699 23.7754 20.8535L140.193 20.1655C142.954 20.1492 145.206 22.3745 145.222 25.1359L145.595 88.3397C145.726 110.431 127.924 128.445 105.833 128.575L59.4142 128.85C37.3232 128.98 19.3091 111.178 19.1786 89.0868L18.8051 25.883Z" fill="url(#paint0_linear_1_50)"/>
<path d="M186.858 7.12454C186.842 4.36316 189.067 2.1114 191.829 2.09509L342.832 1.2027C345.593 1.18638 347.845 3.41169 347.861 6.17306L348.395 96.5214C348.558 124.135 326.305 146.653 298.691 146.816L237.687 147.177C210.073 147.34 187.556 125.087 187.392 97.4729L186.858 7.12454Z" fill="#1E1E1E"/>
<path d="M204.853 24.7835C204.836 22.0221 207.062 19.7704 209.823 19.7541L326.24 19.0661C329.001 19.0497 331.253 21.275 331.27 24.0364L331.643 87.2402C331.774 109.331 313.971 127.345 291.88 127.476L245.462 127.75C223.371 127.881 205.357 110.078 205.226 87.9874L204.853 24.7835Z" fill="url(#paint1_linear_1_50)"/>
<path d="M359.576 15V6.6H363.956V8.04H361.22V10.14H363.596V11.532H361.22V15H359.576ZM364.65 15V6.6H368.958V8.04H366.294V10.044H368.67V11.436H366.294V13.608H369.006V15H364.65ZM370.586 6.6H373.466V8.04H371.162L371.126 8.112L373.046 11.616C373.438 12.32 373.634 12.856 373.634 13.224C373.634 14.032 373.366 14.624 372.83 15H369.65V13.608H372.134L372.17 13.536L370.01 9.66C369.698 9.1 369.542 8.644 369.542 8.292C369.542 7.46 369.89 6.896 370.586 6.6ZM374.123 15L376.535 8.04H374.015V6.6H378.299V7.716L375.815 15H374.123Z" fill="white"/>
<defs>
<linearGradient id="paint0_linear_1_50" x1="81.984" y1="20.5095" x2="82.6234" y2="128.713" gradientUnits="userSpaceOnUse">
<stop stop-color="#CDA1FA"/>
<stop offset="1" stop-color="#CDA1FA" stop-opacity="0"/>
</linearGradient>
<linearGradient id="paint1_linear_1_50" x1="268.032" y1="19.4101" x2="268.671" y2="127.613" gradientUnits="userSpaceOnUse">
<stop stop-color="#CDA1FA"/>
<stop offset="1" stop-color="#CDA1FA" stop-opacity="0"/>
</linearGradient>
</defs>
</svg>
